<?xml version="1.0" encoding="UTF-8" standalone="no"?>
<!DOCTYPE svg PUBLIC "-//W3C//DTD SVG 20010904//EN"
              "http://www.w3.org/TR/2001/REC-SVG-20010904/DTD/svg10.dtd">

<svg xmlns="http://www.w3.org/2000/svg"
     width="135.45mm" height="135.45mm"
     viewBox="0 0 512 512">
  <path id="Auswahl"
        fill="black" stroke="black" stroke-width="1"
        d="M 282.00,148.00
           C 286.19,139.15 302.55,126.28 311.00,120.67
             350.65,94.36 406.09,93.11 447.00,117.45
             479.22,136.62 501.67,168.05 508.39,205.00
             510.43,216.26 510.13,227.59 510.00,239.00
             509.89,248.22 506.37,263.22 503.31,272.00
             495.25,295.08 484.01,308.99 467.00,326.00
             484.38,340.33 498.05,371.47 507.30,392.00
             508.68,395.04 510.09,397.65 510.67,401.00
             512.22,409.89 507.35,417.87 498.00,418.80
             486.72,419.93 483.12,410.49 479.42,402.00
             472.14,385.24 461.79,362.97 448.99,350.00
             447.25,348.24 444.45,345.20 442.00,344.65
             439.23,344.03 434.25,347.06 430.00,347.66
             420.19,349.05 413.52,341.51 414.04,332.00
             414.60,321.91 422.49,319.81 430.00,315.69
             435.48,312.68 442.29,307.81 447.00,303.71
             465.24,287.85 477.59,265.00 480.71,241.00
             486.77,194.46 456.85,149.51 413.00,134.34
             404.80,131.51 393.67,129.11 385.00,129.00
             363.80,128.76 342.31,134.61 325.00,147.16
             312.94,155.90 311.55,158.99 302.00,169.00
             308.56,174.88 316.01,188.71 319.40,197.00
             329.11,220.80 332.38,243.53 328.25,269.00
             326.99,276.76 325.26,284.60 322.56,292.00
             321.77,294.17 318.17,301.90 318.33,303.54
             318.64,306.65 326.42,311.29 329.00,313.00
             335.36,317.20 340.89,319.89 348.00,322.58
             357.77,326.26 367.89,327.50 366.90,341.00
             366.10,351.96 356.54,355.39 347.00,353.10
             337.30,350.78 322.48,344.17 314.00,338.94
             314.00,338.94 300.00,330.00 300.00,330.00
             297.17,335.98 291.63,340.37 287.00,345.00
             305.10,355.57 324.40,386.12 333.75,405.00
             335.30,408.13 336.99,411.51 337.50,415.00
             338.91,424.88 331.59,431.46 322.00,430.96
             311.83,430.43 309.68,422.80 305.75,415.00
             302.95,409.44 299.30,403.14 295.81,398.00
             289.18,388.25 281.02,378.05 272.00,370.44
             270.23,368.95 264.34,364.00 262.42,363.47
             260.01,362.80 257.20,364.78 255.00,365.65
             251.88,366.89 249.34,367.14 246.00,366.96
             233.67,366.27 229.32,351.82 236.64,343.33
             236.64,343.33 259.00,329.26 259.00,329.26
             271.52,320.21 284.03,306.03 290.68,292.00
             297.49,277.64 301.18,261.89 301.00,246.00
             300.59,211.67 278.80,177.68 249.00,161.31
             230.10,150.93 216.16,148.76 195.00,149.00
             186.44,149.10 178.06,151.31 170.00,154.00
             130.04,167.33 100.05,207.34 101.01,250.00
             101.52,272.41 110.48,294.76 124.62,312.00
             134.29,323.80 146.25,332.73 160.00,339.22
             160.00,339.22 180.96,347.65 180.96,347.65
             186.17,351.53 187.83,357.94 185.75,364.00
             180.28,379.94 161.72,371.74 151.00,367.40
             148.16,366.25 142.48,362.70 139.72,363.83
             136.21,365.26 130.26,372.00 127.75,375.00
             118.07,386.62 113.62,396.25 106.42,409.00
             101.57,417.61 99.22,427.30 87.00,426.21
             82.98,425.86 79.14,424.22 76.70,420.90
             69.73,411.42 79.23,395.07 85.00,387.00
             85.00,387.00 80.00,387.00 80.00,387.00
             76.50,386.95 74.33,386.85 71.00,385.52
             48.90,376.71 59.74,347.27 67.37,332.00
             67.37,332.00 72.42,323.00 72.42,323.00
             74.84,318.84 84.15,306.78 83.75,303.00
             83.75,303.00 80.05,293.00 80.05,293.00
             77.90,287.13 76.25,281.12 75.00,275.00
             69.91,250.02 71.86,223.75 81.45,200.00
             92.56,172.50 112.90,149.46 139.00,135.31
             183.41,111.23 242.91,114.95 282.00,148.00 Z
           M 369.00,167.56
           C 375.19,166.47 380.76,166.81 385.47,171.53
             394.77,180.83 389.84,196.65 377.00,199.47
             358.09,203.62 347.96,174.91 369.00,167.56 Z
           M 432.00,167.53
           C 436.61,166.77 440.73,166.57 444.96,168.92
             459.86,177.17 453.15,201.55 435.00,199.66
             417.83,197.87 414.12,173.27 432.00,167.53 Z
           M 191.00,186.50
           C 194.33,186.29 196.86,186.52 200.00,187.85
             215.57,194.48 212.22,220.01 192.00,218.96
             179.60,218.31 172.95,204.49 179.23,194.02
             182.14,189.15 185.74,187.67 191.00,186.50 Z
           M 255.00,186.53
           C 278.45,186.13 278.53,220.18 255.00,218.96
             242.22,218.29 235.41,203.43 242.70,193.04
             245.87,188.52 249.86,187.34 255.00,186.53 Z
           M 374.00,218.51
           C 386.50,217.68 389.93,228.70 407.00,227.96
             421.35,227.33 431.03,212.59 442.96,220.72
             450.88,226.13 450.90,238.16 443.81,244.24
             433.76,252.87 417.05,257.14 404.00,257.00
             392.59,256.87 374.42,251.78 366.21,243.68
             356.96,234.55 361.51,221.40 374.00,218.51 Z
           M 191.00,238.65
           C 205.13,235.74 209.18,247.82 225.00,247.82
             240.57,247.82 247.05,234.01 260.00,239.15
             268.82,242.65 271.01,254.62 265.35,261.82
             261.34,266.92 249.32,272.28 243.00,274.09
             226.95,278.69 206.36,276.75 192.00,267.93
             189.01,266.09 185.72,263.83 183.65,260.96
             177.49,252.43 181.89,242.48 191.00,238.65 Z
           M 33.00,248.56
           C 44.64,246.56 49.19,253.77 57.00,260.83
             60.95,264.41 66.12,268.14 68.55,273.00
             72.46,280.82 68.70,291.16 60.00,293.44
             48.37,296.50 40.54,286.12 33.00,279.09
             27.70,274.14 23.46,271.97 23.04,264.00
             22.62,255.93 25.26,251.29 33.00,248.56 Z
           M 11.00,293.56
           C 18.65,292.22 32.03,294.60 40.00,295.92
             44.20,296.62 49.36,297.23 52.82,299.85
             61.98,306.79 59.77,322.63 48.00,325.47
             43.13,326.65 24.25,323.17 18.00,322.27
             14.27,321.74 10.25,321.46 7.04,319.28
             -1.41,313.51 -2.21,298.21 11.00,293.56 Z
           M 103.00,331.00
           C 97.67,335.66 90.32,349.98 89.00,357.00
             99.60,354.52 105.80,349.92 115.00,345.00
             115.00,345.00 103.00,331.00 103.00,331.00 Z
           M 40.00,333.53
           C 53.01,332.03 61.84,344.75 54.77,355.91
             52.23,359.93 48.03,361.64 44.00,363.78
             38.82,366.53 29.43,372.29 24.00,373.47
             13.92,375.66 6.53,367.93 7.04,358.00
             7.57,347.84 14.45,346.33 22.00,342.14
             28.72,338.41 32.37,335.54 40.00,333.53 Z" />
</svg>
